# xmcd CD database file
#
# Track frame offsets:
#	150
#	17929
#	29302
#	43692
#	61925
#	75515
#	94717
#	113726
#	125140
#	141302
#	153533
#	172566
#
# Disc length: 2416 seconds
#
# Revision: 1
# Processed by: cddbd v1.5.1PL0 Copyright (c) Steve Scherf et al.
# Submitted via: CDex 1.51
#
DISCID=95096e0c
DTITLE=Jessica Speltz - Bare
DYEAR=1998
DGENRE=Country
TTITLE0=Easy
TTITLE1=Reno
TTITLE2=Ache
TTITLE3=Casualties
TTITLE4=You and Me
TTITLE5=Brand New
TTITLE6=Your Number
TTITLE7=Liverated Woman
TTITLE8=Lend Me A Hand
TTITLE9=Loving You
TTITLE10=Out of Time
TTITLE11=Recongnize
EXTD=YEAR: 1998
EXTT0=
EXTT1=
EXTT2=
EXTT3=
EXTT4=
EXTT5=
EXTT6=
EXTT7=
EXTT8=
EXTT9=
EXTT10=
EXTT11=
PLAYORDER=
